<?xml version="1.0" standalone="no"?>
<!DOCTYPE svg PUBLIC "-//W3C//DTD SVG 20010904//EN"
 "http://www.w3.org/TR/2001/REC-SVG-20010904/DTD/svg10.dtd">
<svg version="1.0" xmlns="http://www.w3.org/2000/svg"
 width="260.000000pt" height="260.000000pt" viewBox="0 0 260.000000 260.000000"
 preserveAspectRatio="xMidYMid meet">
<metadata>
Created by potrace 1.11, written by Peter Selinger 2001-2013
</metadata>
<g transform="translate(0.000000,260.000000) scale(0.100000,-0.100000)"
fill="#000000" stroke="none">
<path d="M0 1300 l0 -1300 1300 0 1300 0 0 1300 0 1300 -1300 0 -1300 0 0
-1300z m1194 559 l26 -20 0 -599 0 -599 -26 -20 c-21 -16 -41 -21 -90 -21 -35
0 -74 5 -87 11 -25 11 -47 47 -47 74 0 26 -32 16 -75 -24 -53 -49 -137 -80
-234 -88 -219 -16 -394 110 -466 337 -26 81 -33 435 -11 540 44 211 200 370
406 414 46 10 141 15 321 15 245 1 257 0 283 -20z m1153 -3 l28 -24 0 -592 0
-592 -28 -24 c-24 -21 -38 -24 -103 -24 -66 0 -78 3 -99 25 -14 13 -25 36 -25
50 0 34 -24 32 -62 -5 -59 -60 -171 -100 -278 -100 -221 0 -395 151 -445 386
-10 46 -15 130 -15 255 0 278 33 384 159 510 72 72 177 131 266 147 28 6 168
10 312 11 l262 1 28 -24z"/>
<path d="M619 1625 c-59 -19 -127 -79 -159 -141 -24 -47 -25 -58 -28 -259 -2
-115 -1 -224 3 -241 9 -48 60 -117 106 -143 57 -32 158 -40 227 -17 67 23 134
84 169 154 l28 57 0 300 0 300 -150 2 c-107 1 -163 -2 -196 -12z"/>
<path d="M1770 1625 c-60 -19 -119 -70 -155 -136 l-30 -54 -3 -211 c-2 -141 1
-226 8 -255 16 -57 90 -132 145 -148 160 -44 317 40 364 195 20 64 21 89 19
344 l-3 275 -150 2 c-106 1 -163 -2 -195 -12z"/>
</g>
</svg>
