<?xml version="1.0" standalone="no"?>
<!DOCTYPE svg PUBLIC "-//W3C//DTD SVG 20010904//EN"
 "http://www.w3.org/TR/2001/REC-SVG-20010904/DTD/svg10.dtd">
<svg version="1.0" xmlns="http://www.w3.org/2000/svg"
 width="700.000000pt" height="700.000000pt" viewBox="0 0 700.000000 700.000000"
 preserveAspectRatio="xMidYMid meet">
<metadata>
Created by potrace 1.14, written by Peter Selinger 2001-2017
</metadata>
<g transform="translate(0.000000,700.000000) scale(0.100000,-0.100000)"
fill="#000000" stroke="none">
<path d="M3330 6993 c-33 -4 -173 -27 -215 -37 -512 -111 -975 -485 -1198
-966 -76 -164 -137 -380 -153 -540 -3 -36 -8 -76 -9 -90 -2 -14 -4 -97 -4
-186 l-1 -161 -73 -46 c-446 -282 -746 -777 -794 -1305 -9 -100 -9 -1961 0
-2072 38 -477 302 -948 696 -1241 245 -182 550 -305 838 -336 37 -5 493 -8
1013 -8 939 0 945 0 944 20 -9 185 -60 336 -162 480 -128 182 -335 315 -553
356 -44 8 -230 12 -594 14 -373 1 -549 6 -595 14 -362 70 -633 341 -706 706
-11 57 -13 247 -11 1055 2 542 6 999 10 1015 22 86 42 145 68 200 116 250 349
435 619 491 78 16 166 18 1060 18 967 -1 976 -1 1064 -22 317 -78 562 -317
648 -632 22 -82 23 -99 23 -445 l-1 -360 -27 -90 c-28 -88 -113 -265 -128
-265 -4 0 -10 -8 -13 -17 -14 -42 -226 -233 -260 -233 -2 0 -4 278 -5 618 0
339 -3 631 -5 647 -13 89 -80 203 -153 260 -64 51 -89 64 -160 83 -65 18 -116
19 -1013 18 l-945 -2 -56 -22 c-139 -55 -231 -154 -274 -292 -15 -48 -16 -79
-16 -1005 0 -914 0 -931 20 -997 35 -109 115 -204 216 -256 102 -51 81 -51
1143 -47 543 1 1005 5 1027 9 119 20 250 51 330 78 109 36 331 142 400 190
183 129 339 274 438 408 26 36 54 72 60 80 24 29 117 196 151 272 68 148 127
372 142 533 16 172 8 789 -11 886 -3 13 -7 35 -10 49 -11 55 -14 73 -30 133
-102 399 -387 789 -742 1014 l-73 46 -1 151 c-1 245 -12 344 -59 525 -173 658
-708 1158 -1373 1282 -106 20 -388 32 -487 22z m329 -883 c179 -32 355 -130
481 -267 34 -37 73 -87 87 -110 14 -24 30 -43 36 -43 6 0 8 -3 5 -6 -3 -3 9
-38 27 -77 47 -102 75 -217 79 -327 l1 -25 -876 -3 -875 -2 2 37 c8 135 33
225 94 348 177 354 556 545 939 475z m267 -3049 c8 -1 11 -123 11 -436 l0
-435 -26 0 c-104 -1 -765 -1 -802 -1 l-46 1 0 434 0 435 26 3 c20 2 789 1 837
-1z"/>
</g>
</svg>
