<?xml version="1.0" standalone="no"?>
<!DOCTYPE svg PUBLIC "-//W3C//DTD SVG 20010904//EN"
 "http://www.w3.org/TR/2001/REC-SVG-20010904/DTD/svg10.dtd">
<svg version="1.0" xmlns="http://www.w3.org/2000/svg"
 width="260.000000pt" height="260.000000pt" viewBox="0 0 260.000000 260.000000"
 preserveAspectRatio="xMidYMid meet">
<metadata>
Created by potrace 1.11, written by Peter Selinger 2001-2013
</metadata>
<g transform="translate(0.000000,260.000000) scale(0.100000,-0.100000)"
fill="#000000" stroke="none">
<path d="M0 1300 l0 -1300 1300 0 1300 0 0 1300 0 1300 -1300 0 -1300 0 0
-1300z m2200 655 c63 -32 60 -7 60 -596 l0 -536 -31 -61 c-17 -36 -46 -74 -69
-92 -78 -62 -57 -60 -799 -60 -513 0 -680 3 -689 12 -16 16 -16 70 0 86 9 9
170 12 662 12 417 0 664 4 688 10 46 13 92 50 107 87 8 20 11 162 9 497 l-3
468 -305 -238 c-394 -307 -376 -294 -420 -294 -46 0 -71 17 -551 387 -102 78
-191 154 -197 168 -26 57 -2 127 51 150 50 22 1445 22 1487 0z m-1496 -381
c17 -16 21 -51 8 -70 -4 -7 -47 -44 -97 -83 -94 -74 -129 -86 -159 -55 -9 8
-16 26 -16 40 0 26 15 41 125 128 74 58 111 69 139 40z m226 -144 c39 -39 18
-84 -62 -135 -50 -31 -108 5 -94 59 7 27 91 96 118 96 10 0 27 -9 38 -20z
m-536 -96 c50 -50 -31 -146 -90 -106 -18 12 -35 52 -28 65 31 54 86 74 118 41z
m742 -67 c42 -36 28 -65 -64 -136 -42 -33 -115 -89 -162 -125 -90 -71 -124
-81 -154 -47 -35 38 -18 60 144 189 140 111 181 139 202 141 4 1 19 -9 34 -22z
m-408 -20 c12 -24 11 -31 -2 -52 -24 -37 -387 -315 -411 -315 -31 0 -57 33
-53 66 2 23 38 55 198 181 164 129 200 153 225 151 21 -2 34 -11 43 -31z m-26
-324 c34 -30 18 -82 -32 -108 -24 -13 -35 -13 -53 -4 -46 24 -50 68 -11 104
31 29 70 32 96 8z"/>
<path d="M811 1837 c9 -7 145 -113 303 -237 159 -124 292 -225 297 -225 8 0
609 465 609 471 0 2 -276 4 -612 4 -484 -1 -610 -3 -597 -13z"/>
</g>
</svg>
