<?xml version="1.0" encoding="UTF-8"?>
<!-- Generator: Adobe Illustrator 19.0.0, SVG Export Plug-In . SVG Version: 6.00 Build 0)  -->
<svg width="73.517" height="50" version="1.1" viewBox="0 0 73.517 50" xml:space="preserve" xmlns="http://www.w3.org/2000/svg" xmlns:cc="http://creativecommons.org/ns#" xmlns:dc="http://purl.org/dc/elements/1.1/" xmlns:rdf="http://www.w3.org/1999/02/22-rdf-syntax-ns#"><metadata><rdf:RDF><cc:Work rdf:about=""><dc:format>image/svg+xml</dc:format><dc:type rdf:resource="http://purl.org/dc/dcmitype/StillImage"/><dc:title/></cc:Work></rdf:RDF></metadata>
<style type="text/css">
	.st0{fill:#3AE7E1;}
	.st1{fill:#F5F7FA;}
</style>
<g id="XMLID_29_" transform="matrix(.1641 0 0 .1641 -8.4819 -6.6295)">
		<path id="XMLID_41_" class="st0" d="m107.8 179.5c-4.6 0.7-9.5-1-12.6-5-4.5-5.8-3.5-14.1 2.3-18.7l37-28.9c5.8-4.5 14.1-3.5 18.7 2.3 4.5 5.8 3.5 14.1-2.3 18.7l-37 28.9c-1.8 1.5-3.9 2.4-6.1 2.7z" style="fill:#3ae7e1"/>
	</g><g id="XMLID_30_" transform="matrix(.1641 0 0 .1641 -8.4819 -6.6295)">
		<path id="XMLID_40_" class="st1" d="m71.9 207.7c-4.6 0.7-9.5-1-12.6-4.9-4.5-5.8-3.5-14.1 2.3-18.7l3.5-2.7c5.8-4.5 14.1-3.5 18.7 2.3 4.5 5.8 3.5 14.1-2.3 18.7l-3.5 2.7c-1.8 1.4-3.9 2.3-6.1 2.6z" style="fill:#f5f7fa"/>
	</g><g id="XMLID_31_" transform="matrix(.1641 0 0 .1641 -8.4819 -6.6295)">
		<path id="XMLID_39_" class="st0" d="m67.1 283.6c-4.6 0.7-9.5-1-12.6-5-4.5-5.8-3.5-14.1 2.3-18.7l81.2-63.4c5.8-4.5 14.2-3.5 18.7 2.3s3.5 14.1-2.3 18.7l-81.2 63.5c-1.9 1.4-4 2.3-6.1 2.6z" style="fill:#3ae7e1"/>
	</g><g id="XMLID_34_" transform="matrix(.1641 0 0 .1641 -8.4819 -6.6295)">
		<path id="XMLID_38_" class="st1" d="m182.8 193.6c-4.6 0.7-9.5-1-12.6-5-4.5-5.8-3.5-14.1 2.3-18.7l12.9-10.1c5.8-4.5 14.1-3.5 18.7 2.3 4.5 5.8 3.5 14.1-2.3 18.7l-12.9 10.1c-1.9 1.4-4 2.3-6.1 2.7z" style="fill:#f5f7fa"/>
	</g><g id="XMLID_32_" transform="matrix(.1641 0 0 .1641 -8.4819 -6.6295)">
		<path id="XMLID_37_" class="st0" d="m175.7 271.1c-4.6 0.7-9.5-1-12.6-5-4.5-5.8-3.5-14.1 2.3-18.7l66.6-52c5.8-4.5 14.2-3.5 18.7 2.3s3.5 14.1-2.3 18.7l-66.6 52c-1.8 1.5-3.9 2.4-6.1 2.7z" style="fill:#3ae7e1"/>
	</g><path id="XMLID_36_" class="st1" d="m14.377 42.599c-0.75484 0.11487-1.5589-0.16409-2.0676-0.82048-0.73843-0.95176-0.57434-2.3302 0.37742-3.0686l0.77125-0.60716c0.95176-0.73843 2.3302-0.57434 3.0686 0.37742 0.73843 0.95176 0.57433 2.3302-0.37742 3.0686l-0.77126 0.60715c-0.31178 0.24615-0.65638 0.39383-1.001 0.44306z" style="fill:#f5f7fa;stroke-width:.1641"/><path id="XMLID_44_" class="st0" d="m69.464 0h-50.673c-1.8871 0-3.6429 1.1651-4.2009 2.9701-0.26255 0.83689-0.24614 1.6902 0 2.4614 0.24615 0.78766 0.73844 1.5097 1.4276 2.0512 0 0 19.413 15.08 24.171 18.362 1.7066 1.0994 3.364 0.72203 4.3486-0.0328l24.631-19.166v33.131c0 3.2327-2.6255 5.8582-5.8582 5.8582h-46.554c-1.1979 0-2.1661 0.96817-2.1661 2.1661 0 1.2143 0.98458 2.1989 2.1989 2.1989h46.505c5.6449 0 10.223-4.5783 10.223-10.223v-35.724c0.0164-2.2317-1.805-4.0532-4.0532-4.0532zm-35.051 18.067 0.0164-0.11487 0.0656 0.0985zm7.9258 3.9383-22.563-17.64h45.208z" style="fill:#3ae7e1;stroke-width:.1641"/>
</svg>
