<?xml version="1.0" encoding="utf-8"?>
<!-- Generator: Adobe Illustrator 26.5.0, SVG Export Plug-In . SVG Version: 6.00 Build 0)  -->
<svg version="1.1" id="Layer_1" xmlns="http://www.w3.org/2000/svg" xmlns:xlink="http://www.w3.org/1999/xlink" x="0px" y="0px"
	 viewBox="0 0 512 512" style="enable-background:new 0 0 512 512;" xml:space="preserve">
<style type="text/css">
	.st0{fill:#2D7AAE;}
	.st1{fill:url(#SVGID_1_);}
	.st2{fill:url(#SVGID_00000156545936130191700320000008195209548715488385_);}
	.st3{fill:url(#SVGID_00000143584101133021423970000011392231724048019130_);}
</style>
<g>
	<g>
		<g>
			<g>
				<g>
					<path class="st0" d="M384,288c0,23.7-12.9,44.3-32,55.4v8.6v32c0,17.7-14.3,32-32,32c22.5,0,43.5-5.8,61.9-16
						c1.3-5.1,2.1-10.5,2.1-16V288z"/>
					<linearGradient id="SVGID_1_" gradientUnits="userSpaceOnUse" x1="44.3778" y1="108.3778" x2="447.0218" y2="511.0218">
						<stop  offset="0" style="stop-color:#3AE7E1"/>
						<stop  offset="0.9481" style="stop-color:#1993D2"/>
					</linearGradient>
					<path class="st1" d="M320,224H192c-17.7,0-32,14.3-32,32v128c0,17.7,14.3,32,32,32h128c17.7,0,32-14.3,32-32v-32v-8.6V256
						C352,238.3,337.7,224,320,224z M288,352h-64v-64h64V352z"/>
				</g>
				<g>
					<g>

							<linearGradient id="SVGID_00000172402524082644261950000017850675858297515650_" gradientUnits="userSpaceOnUse" x1="158.7823" y1="-6.0267" x2="561.4263" y2="396.6173">
							<stop  offset="0" style="stop-color:#3AE7E1"/>
							<stop  offset="0.9481" style="stop-color:#1993D2"/>
						</linearGradient>
						<path style="fill:url(#SVGID_00000172402524082644261950000017850675858297515650_);" d="M200.7,96c11.1-19.1,31.7-32,55.3-32
							s44.3,12.9,55.3,32h8.7c21.4,0,42.7,4.4,62.4,12.8C373.1,47.3,320,0,256,0c-64,0-117.1,47.3-126.4,108.8
							c19.7-8.4,41-12.8,62.4-12.8H200.7z"/>
						<path class="st0" d="M128,145.3c18.8-10.9,40.7-17.3,64-17.3c0-11.7,3.2-22.6,8.7-32H192c-21.4,0-42.7,4.4-62.4,12.8
							c-1,6.3-1.6,12.7-1.6,19.2V145.3z"/>
						<path class="st0" d="M311.3,96c5.5,9.4,8.7,20.3,8.7,32c23.3,0,45.2,6.4,64,17.3V128c0-6.5-0.6-12.9-1.6-19.2
							c-19.7-8.4-41-12.8-62.4-12.8H311.3z"/>
					</g>

						<linearGradient id="SVGID_00000134226740407654928070000009802432056583808703_" gradientUnits="userSpaceOnUse" x1="44.3425" y1="108.4131" x2="446.9865" y2="511.0571">
						<stop  offset="0" style="stop-color:#3AE7E1"/>
						<stop  offset="0.9481" style="stop-color:#1993D2"/>
					</linearGradient>
					<path style="fill:url(#SVGID_00000134226740407654928070000009802432056583808703_);" d="M384,384c0,5.5-0.8,10.9-2.1,16
						c39.4-21.8,66.1-63.8,66.1-112v-32c0-47.4-25.8-88.6-64-110.7c-18.8-10.9-40.7-17.3-64-17.3H192c-23.3,0-45.2,6.4-64,17.3
						C89.8,167.4,64,208.6,64,256v128c0,70.7,57.3,128,128,128h128v0c0-35.3-28.7-64-64-64h0h-64c-35.3,0-64-28.7-64-64V256
						c0-35.3,28.7-64,64-64h128c35.3,0,64,28.7,64,64v32V384z"/>
				</g>
			</g>
		</g>
	</g>
</g>
</svg>
