<?xml version="1.0" encoding="UTF-8"?>
<!-- Created with Inkscape (http://www.inkscape.org/) -->
<svg width="203.11" height="50" version="1.1" viewBox="0 0 53.739 13.229" xmlns="http://www.w3.org/2000/svg" xmlns:cc="http://creativecommons.org/ns#" xmlns:dc="http://purl.org/dc/elements/1.1/" xmlns:rdf="http://www.w3.org/1999/02/22-rdf-syntax-ns#">
 <metadata>
  <rdf:RDF>
   <cc:Work rdf:about="">
    <dc:format>image/svg+xml</dc:format>
    <dc:type rdf:resource="http://purl.org/dc/dcmitype/StillImage"/>
    <dc:title/>
   </cc:Work>
  </rdf:RDF>
 </metadata>
 <g aria-label="anonaddy">
  <path d="m4.0263 4.6733q0-0.1438-0.1438-0.1438h-1.0785q-0.71898 0-1.1216 0.44577-0.38825 0.44577-0.38825 1.0641v1.4236q0 0.54642 0.31635 0.89153 0.33073 0.34511 0.90591 0.34511 0.38825 0 0.66146-0.12942 0.28759-0.1438 0.47452-0.37387 0.18693-0.23007 0.27321-0.50328 0.10066-0.28759 0.10066-0.58956zm0.43139 5.1047q-0.20131 0-0.31635-0.12942-0.11504-0.12942-0.11504-0.28759 0-0.086277-0.071898-0.10066-0.057518-0.028759-0.11504 0.043139-0.20131 0.27321-0.60394 0.44577-0.38825 0.17255-0.94905 0.17255-0.50328 0-0.92029-0.18693-0.41701-0.18693-0.71898-0.53204-0.30197-0.34511-0.47452-0.81963-0.17255-0.4889-0.17255-1.0641v-1.2798q0-0.5608 0.20131-1.0641t0.5608-0.86277q0.37387-0.37387 0.87715-0.58956 0.50328-0.21569 1.1072-0.21569h2.1425q0.20131 0 0.31635 0.11504 0.11504 0.11504 0.11504 0.31635v5.608q0 0.20131-0.11504 0.31635-0.11504 0.11504-0.31635 0.11504z" style="fill:#3ae7e1;stroke-width:.065362"/>
  <path d="m11.311 9.7781q-0.20131 0-0.31635-0.11504-0.11504-0.11504-0.11504-0.31635v-3.5949q0-0.54642-0.34511-0.94905-0.33073-0.41701-1.0209-0.41701-0.69022 0-1.0353 0.41701-0.33073 0.40263-0.33073 0.94905v3.5949q0 0.20131-0.11504 0.31635-0.11504 0.11504-0.31635 0.11504h-0.43139q-0.20131 0-0.31635-0.11504-0.11504-0.11504-0.11504-0.31635v-3.5949q0-0.51766 0.18693-0.99219 0.20131-0.47452 0.54642-0.81963 0.34511-0.35949 0.83401-0.5608 0.4889-0.21569 1.0928-0.21569t1.0928 0.21569q0.4889 0.20131 0.83401 0.5608 0.34511 0.34511 0.53204 0.81963 0.20131 0.47452 0.20131 0.99219v3.5949q0 0.20131-0.11504 0.31635-0.11504 0.11504-0.31635 0.11504z" style="fill:#3ae7e1;stroke-width:.065362"/>
  <path d="m16.798 8.6996q0.44577 0 0.81963-0.17255 0.38825-0.17255 0.66146-0.46014 0.28759-0.28759 0.44576-0.67584 0.15818-0.40263 0.15818-0.84839t-0.15818-0.83401q-0.15818-0.40263-0.44576-0.69022-0.27321-0.28759-0.66146-0.46014-0.37387-0.17255-0.81963-0.17255-0.44576 0-0.83401 0.17255-0.37387 0.17255-0.66146 0.46014-0.27321 0.28759-0.43139 0.69022-0.15817 0.38825-0.15817 0.83401t0.15817 0.84839q0.15818 0.38825 0.43139 0.67584 0.28759 0.28759 0.66146 0.46014 0.38825 0.17255 0.83401 0.17255zm0 1.2223q-0.7046 0-1.3229-0.25883-0.60394-0.27321-1.0641-0.73336-0.46014-0.46014-0.73336-1.0641-0.25883-0.61832-0.25883-1.3229 0-0.7046 0.25883-1.3085 0.27321-0.61832 0.73336-1.0785 0.46014-0.46014 1.0641-0.71898 0.61832-0.27321 1.3229-0.27321t1.3085 0.27321q0.61832 0.25883 1.0785 0.71898 0.46014 0.46014 0.71898 1.0785 0.27321 0.60394 0.27321 1.3085 0 0.7046-0.27321 1.3229-0.25883 0.60394-0.71898 1.0641-0.46014 0.46014-1.0785 0.73336-0.60394 0.25883-1.3085 0.25883z" style="fill:#3ae7e1;stroke-width:.065362"/>
  <path d="m25.888 9.7781q-0.20131 0-0.31635-0.11504-0.11504-0.11504-0.11504-0.31635v-3.5949q0-0.54642-0.34511-0.94905-0.33073-0.41701-1.0209-0.41701-0.69022 0-1.0353 0.41701-0.33073 0.40263-0.33073 0.94905v3.5949q0 0.20131-0.11504 0.31635-0.11504 0.11504-0.31635 0.11504h-0.43139q-0.20131 0-0.31635-0.11504-0.11504-0.11504-0.11504-0.31635v-3.5949q0-0.51766 0.18693-0.99219 0.20131-0.47452 0.54642-0.81963 0.34511-0.35949 0.83401-0.5608 0.4889-0.21569 1.0928-0.21569 0.60394 0 1.0928 0.21569 0.4889 0.20131 0.83401 0.5608 0.34511 0.34511 0.53204 0.81963 0.20131 0.47452 0.20131 0.99219v3.5949q0 0.20131-0.11504 0.31635-0.11504 0.11504-0.31635 0.11504z" style="fill:#3ae7e1;stroke-width:.065362"/>
  <path d="m32.31 4.6733q0-0.1438-0.1438-0.1438h-1.0785q-0.71898 0-1.1216 0.44577-0.38825 0.44577-0.38825 1.0641v1.4236q0 0.54642 0.31635 0.89153 0.33073 0.34511 0.90591 0.34511 0.38825 0 0.66146-0.12942 0.28759-0.1438 0.47452-0.37387 0.18693-0.23007 0.27321-0.50328 0.10066-0.28759 0.10066-0.58956zm0.43139 5.1047q-0.20131 0-0.31635-0.12942-0.11504-0.12942-0.11504-0.28759 0-0.086277-0.0719-0.10066-0.05752-0.028759-0.11504 0.043139-0.20131 0.27321-0.60394 0.44577-0.38825 0.17255-0.94905 0.17255-0.50328 0-0.92029-0.18693-0.417-0.18693-0.71897-0.53204t-0.47452-0.81963q-0.17256-0.4889-0.17256-1.0641v-1.2798q0-0.5608 0.20131-1.0641 0.20131-0.50328 0.5608-0.86277 0.37387-0.37387 0.87715-0.58956 0.50328-0.21569 1.1072-0.21569h2.1426q0.20131 0 0.31635 0.11504 0.11504 0.11504 0.11504 0.31635v5.608q0 0.20131-0.11504 0.31635-0.11504 0.11504-0.31635 0.11504z" style="fill:#7b8794;stroke-width:.065362"/>
  <path d="m37.51 9.7781q-0.5608 0-1.0353-0.18693-0.46014-0.18693-0.79087-0.50328-0.33073-0.33073-0.51766-0.77649-0.17256-0.46014-0.17256-0.97781v-1.5817q0-0.51766 0.18693-0.96343 0.18693-0.46014 0.50328-0.77649 0.33073-0.33073 0.77649-0.51766 0.46014-0.18693 0.99219-0.18693h1.4236q0.1438 0 0.1438-0.1438v-2.7321q0-0.20131 0.11504-0.31635 0.11504-0.11504 0.31635-0.11504h0.43139q0.20131 0 0.31635 0.11504 0.11504 0.11504 0.11504 0.31635v8.9153q0 0.20131-0.11504 0.31635-0.11504 0.11504-0.31635 0.11504zm1.5098-5.1047q0-0.1438-0.1438-0.1438h-1.3661q-0.54642 0-0.89153 0.34511-0.33073 0.33073-0.33073 0.87715v1.5817q0 0.54642 0.35949 0.89153 0.35949 0.33073 0.86277 0.33073h1.3661q0.1438 0 0.1438-0.1438z" style="fill:#7b8794;stroke-width:.065362"/>
  <path d="m44.222 9.7781q-0.5608 0-1.0353-0.18693-0.46014-0.18693-0.79087-0.50328-0.33073-0.33073-0.51766-0.77649-0.17255-0.46014-0.17255-0.97781v-1.5817q0-0.51766 0.18693-0.96343 0.18693-0.46014 0.50328-0.77649 0.33073-0.33073 0.7765-0.51766 0.46014-0.18693 0.99219-0.18693h1.4236q0.1438 0 0.1438-0.1438v-2.7321q0-0.20131 0.11504-0.31635 0.11504-0.11504 0.31635-0.11504h0.43139q0.20131 0 0.31635 0.11504 0.11504 0.11504 0.11504 0.31635v8.9153q0 0.20131-0.11504 0.31635-0.11504 0.11504-0.31635 0.11504zm1.5099-5.1047q0-0.1438-0.1438-0.1438h-1.3661q-0.54642 0-0.89153 0.34511-0.33073 0.33073-0.33073 0.87715v1.5817q0 0.54642 0.35949 0.89153 0.35949 0.33073 0.86277 0.33073h1.3661q0.1438 0 0.1438-0.1438z" style="fill:#7b8794;stroke-width:.065362"/>
  <path d="m52.445 9.9219q0-0.1438-0.1438-0.1438h-1.3373q-0.53204 0-0.97781-0.17255-0.44576-0.18693-0.76212-0.50328-0.31635-0.31635-0.4889-0.74774-0.17255-0.44577-0.17255-0.96343v-3.6524q0-0.20131 0.11504-0.31635 0.11504-0.11504 0.31635-0.11504h0.43138q0.20131 0 0.31635 0.11504 0.11504 0.11504 0.11504 0.31635v3.6524q0 0.54642 0.30197 0.86277 0.31635 0.30197 0.86277 0.30197h1.2798q0.1438 0 0.1438-0.1438v-4.6733q0-0.20131 0.11504-0.31635 0.11504-0.11504 0.31635-0.11504h0.43139q0.20131 0 0.31635 0.11504 0.11504 0.11504 0.11504 0.31635v6.8015q0 0.54642-0.18693 1.0353t-0.53204 0.84839q-0.34511 0.37387-0.83401 0.58956t-1.1072 0.21569q-0.73336 0-1.2223-0.15818-0.4889-0.1438-0.86277-0.38825-0.15818-0.10066-0.21569-0.25883-0.04314-0.15817 0.04314-0.31635l0.17256-0.33073q0.18693-0.35949 0.5608-0.17256 0.30197 0.17256 0.66146 0.28759 0.35949 0.11504 0.86277 0.11504 0.73336 0 1.0497-0.40263 0.31635-0.38825 0.31635-1.0641z" style="fill:#7b8794;stroke-width:.065362"/>
 </g>
</svg>
